<svg width="270" height="268" viewBox="0 0 270 268" fill="none" xmlns="http://www.w3.org/2000/svg">
<path d="M154.554 73.7964C148.147 71.7797 141.601 70.8172 135.148 70.863C111.502 70.9088 89.1923 84.0635 78.1298 106.019C62.9188 106.935 51.0726 119.494 51.0726 134.666C51.1187 149.837 63.0571 162.304 78.2681 163.175C89.0541 184.626 111.087 198.147 135.194 198.056H135.332H135.471C166.953 197.964 193.733 175.092 198.481 144.108C198.988 140.807 199.219 137.507 199.219 134.207C199.219 106.935 181.426 82.2301 154.554 73.7964ZM92.4189 134.574C92.4189 140.945 87.9017 146.445 81.5868 147.683C80.7111 147.82 79.8353 147.912 79.0056 147.912C75.3181 147.912 71.9532 146.445 69.5102 144.016C67.0672 141.632 65.5922 138.287 65.5461 134.62C65.5461 130.953 67.0211 127.607 69.4641 125.178C71.9071 122.748 75.2259 121.282 78.9134 121.236C79.7431 121.236 80.6189 121.328 81.4486 121.465C87.7634 122.657 92.3728 128.157 92.4189 134.574ZM183.731 134.345C183.777 154.329 171.332 172.663 151.926 179.767C146.487 181.738 140.864 182.701 135.332 182.747C118.6 182.792 102.56 174.221 93.5713 159.279C93.94 159.05 94.2166 158.821 94.5392 158.683C95.415 158.087 96.2908 157.491 97.1205 156.804C97.4893 156.483 97.858 156.162 98.2729 155.841C99.1025 155.108 99.8861 154.283 100.578 153.458C100.808 153.183 101.085 152.954 101.315 152.633C102.237 151.487 103.067 150.295 103.804 149.058C103.989 148.737 104.127 148.416 104.265 148.187C104.818 147.179 105.325 146.124 105.74 145.024C105.924 144.566 106.063 144.108 106.201 143.649C106.524 142.641 106.8 141.587 107.031 140.532C107.123 140.12 107.215 139.662 107.307 139.157C107.584 137.645 107.722 136.086 107.722 134.574C107.722 133.015 107.584 131.503 107.307 129.99C107.215 129.532 107.123 129.074 107.031 128.661C106.8 127.607 106.524 126.553 106.155 125.544C106.017 125.086 105.832 124.673 105.694 124.215C105.233 123.069 104.726 121.969 104.127 120.869C104.035 120.686 103.942 120.457 103.758 120.182C102.974 118.898 102.099 117.661 101.131 116.469L100.624 115.919C99.794 114.956 98.8721 114.04 97.9041 113.215L97.1205 112.573C96.1064 111.748 95.0463 110.969 93.94 110.327L93.3869 109.96C102.006 95.339 117.771 86.3094 134.825 86.2636H135.01C158.564 86.2178 178.753 102.993 182.901 126.049C183.455 128.753 183.685 131.595 183.731 134.345Z" fill="#02AF90"/>
<path d="M269.65 204.06C269.65 196.13 266.239 188.384 260.109 182.884C266.332 167.346 269.512 150.799 269.466 134.07V133.611C269.282 69.992 224.156 15.2648 161.422 2.66016C152.341 0.826751 143.261 -0.0441171 134.318 0.0017181C81.1259 0.139224 31.8053 31.7655 10.556 82.0925C3.36532 99.0515 -0.0456331 116.836 0.000460844 134.345C0.138743 177.521 21.2959 219.369 59.0929 244.853C82.186 260.437 108.736 268.046 135.102 268C169.165 267.908 202.952 254.983 228.765 229.957C232.591 231.744 236.739 232.707 240.98 232.707H241.026C253.01 232.661 263.704 225.282 267.899 214.098C269.097 210.843 269.65 207.406 269.65 204.06ZM253.84 207.314C252.365 213.227 247.018 217.352 240.934 217.398C237.246 217.398 233.881 215.931 231.438 213.502C228.995 211.118 227.52 207.773 227.474 204.106C227.428 200.439 228.949 197.093 231.346 194.664C233.789 192.234 237.108 190.768 240.795 190.722C243.008 190.722 245.174 191.272 247.11 192.326C251.489 194.664 254.117 199.201 254.163 204.014C254.255 205.114 254.117 206.214 253.84 207.314ZM254.071 134.436C254.117 148.645 251.535 162.762 246.465 176.055C244.529 175.642 242.547 175.459 240.565 175.459C234.066 175.459 227.659 177.705 222.542 181.876C215.905 187.284 212.079 195.397 212.079 203.922V204.106C212.125 206.031 212.309 207.91 212.724 209.789C212.816 210.293 212.955 210.752 213.093 211.21C213.508 212.814 214.061 214.327 214.706 215.839C214.798 216.023 214.845 216.252 215.029 216.527C215.628 217.719 216.32 218.91 217.057 220.011C195.255 240.82 166.261 252.462 136.024 252.553H135.563C69.925 252.783 16.5943 200.072 16.3177 134.803C16.2255 102.168 29.4545 72.5588 50.8882 51.1079C72.3219 29.6571 102.006 16.3649 134.825 16.2274C167.644 16.0899 197.421 29.2904 218.993 50.6037C240.565 71.9171 253.932 101.435 254.071 134.07V134.436Z" fill="#02AF90"/>
</svg>
